<?xml version="1.0" encoding="UTF-8"?><svg id="b" xmlns="http://www.w3.org/2000/svg" viewBox="0 0 372.8 232.35"><path d="M80.18,128.78c0-11.52,14.92-22.09,39.68-30.32l-9.49-7.38c-42.63,8.63-70.31,22.58-70.31,38.29,0,26.27,77.05,47.52,172.14,47.52,10.12,0,20-.24,29.59-.71-90.18-1.48-161.61-22.13-161.61-47.4Z" fill="#fff" stroke-width="0"/><path d="M172.02,86.76c8.34-.77,16.92-1.36,25.8-1.78-3.73-.06-7.46-.12-11.24-.12-10.34,0-20.41.31-30.25.8l2.96,3.16c4.13-.73,8.36-1.43,12.73-2.06Z" fill="#fff" stroke-width="0"/><path d="M168.66,58.48c-9.82,0-19.47.24-28.88.71,34.66.62,66.48,4.1,92.55,9.56l5.82-6.2c-21.26-2.6-44.74-4.06-69.49-4.06Z" fill="#fff" stroke-width="0"/><path d="M300.62,106.59c0,18.29-37.28,34.09-91.96,42.07-8.05.77-16.33,1.36-24.91,1.72,3.49.12,6.98.12,10.53.12,19.05,0,37.4-.83,54.5-2.43,54.68-7.99,91.96-23.79,91.96-42.07,0-13.51-20.51-25.7-53.35-34.35l-12.71,9.89c16.42,7.28,25.94,15.86,25.94,25.05Z" fill="#fff" stroke-width="0"/><path d="M182.14,153.53c-1.58-27.09-5.79-41.86-25.03-61.1L70.95,0H0l136.09,105.94c23.23,18.13,28.09,39.11,30.22,59.89,5.33.86,10.84,1.62,16.47,2.32-.2-5.71-.42-10.8-.64-14.6Z" fill="#fff" stroke-width="0"/><path d="M171.98,232.35h12.39s-.5-28-1.2-52.08c-5.28-.24-10.51-.55-15.65-.93l4.47,53.01Z" fill="#fff" stroke-width="0"/><path d="M188.43,232.35h12.39l4.34-51.45c-5.22-.06-10.4-.18-15.53-.37-.7,24.01-1.2,51.81-1.2,51.81Z" fill="#fff" stroke-width="0"/><path d="M208.06,154.42c-4.55.1-9.15.15-13.78.15-1.21,0-2.44,0-3.67-.01-.21,3.87-.42,8.84-.62,14.42,5.25.57,10.61,1.06,16.07,1.48.47-5.33,1.06-10.69,2-16.03Z" fill="#fff" stroke-width="0"/><path d="M210.36,144.29c3.86-13.43,11.17-26.5,26.36-38.35L372.8,0h-70.95l-86.15,92.44c-17.33,17.33-22.45,31.09-24.45,53.45,5.58-.33,11.17-.72,16.93-1.27.74-.11,1.45-.22,2.18-.33Z" fill="#fff" stroke-width="0"/></svg>