<?xml version="1.0" encoding="UTF-8"?><svg id="b" xmlns="http://www.w3.org/2000/svg" xmlns:xlink="http://www.w3.org/1999/xlink" viewBox="0 0 368.42 229.22"><defs><linearGradient id="c" x1="39.75" y1="132.1" x2="238.65" y2="132.1" gradientUnits="userSpaceOnUse"><stop offset="0" stop-color="#080092"/><stop offset=".18" stop-color="#090495"/><stop offset=".38" stop-color="#0e119f"/><stop offset=".59" stop-color="#1626b1"/><stop offset=".79" stop-color="#2144c9"/><stop offset="1" stop-color="#2f6ae8"/></linearGradient><linearGradient id="d" x1="39.75" y1="85.63" x2="238.65" y2="85.63" xlink:href="#c"/><linearGradient id="e" x1="138.08" y1="62.72" x2="332.9" y2="62.72" xlink:href="#c"/><linearGradient id="f" x1="138.08" y1="109.51" x2="336.22" y2="109.51" xlink:href="#c"/><linearGradient id="g" x1=".25" y1="82.89" x2="182.04" y2="82.89" xlink:href="#c"/><linearGradient id="h" x1="1.49" y1="202.97" x2="182.04" y2="202.97" xlink:href="#c"/><linearGradient id="i" x1="21.98" y1="203.55" x2="202.53" y2="203.55" xlink:href="#c"/><linearGradient id="j" x1="-508.31" y1="160.16" x2="-326.52" y2="160.16" gradientTransform="translate(-140.48) rotate(-180) scale(1 -1)" xlink:href="#c"/><linearGradient id="k" x1="-508.31" y1="71.92" x2="-326.52" y2="71.92" gradientTransform="translate(-140.48) rotate(-180) scale(1 -1)" xlink:href="#c"/></defs><path d="M79.31,126.97c0-11.36,14.72-21.78,39.12-29.89l-9.35-7.28c-42.03,8.51-69.33,22.26-69.33,37.76,0,25.91,75.97,46.85,169.73,46.85,9.98,0,19.72-.23,29.17-.7-88.92-1.46-159.34-21.82-159.34-46.74Z" fill="url(#c)" stroke-width="0"/><path d="M169.86,85.55c8.23-.76,16.69-1.34,25.44-1.75-3.68-.06-7.35-.12-11.09-.12-10.19,0-20.12.3-29.82.79l2.92,3.11c4.07-.72,8.25-1.41,12.55-2.03Z" fill="url(#d)" stroke-width="0"/><path d="M166.55,57.66c-9.69,0-19.2.23-28.47.7,34.18.61,65.55,4.04,91.25,9.42l5.74-6.12c-20.96-2.56-44.12-4.01-68.51-4.01Z" fill="url(#e)" stroke-width="0"/><path d="M296.66,105.09c0,18.03-36.76,33.61-90.67,41.48-7.93.76-16.1,1.34-24.56,1.69,3.44.12,6.88.12,10.39.12,18.79,0,36.87-.82,53.74-2.39,53.91-7.88,90.67-23.46,90.67-41.48,0-13.32-20.22-25.34-52.6-33.87l-12.53,9.76c16.19,7.18,25.57,15.64,25.57,24.7Z" fill="url(#f)" stroke-width="0"/><path d="M179.84,151.38c-1.56-26.71-5.71-41.27-24.68-60.24L70.21,0H.25l134.18,104.45c22.91,17.88,27.69,38.56,29.8,59.05,5.26.85,10.68,1.6,16.24,2.28-.2-5.63-.41-10.65-.63-14.4Z" fill="url(#g)" stroke-width="0"/><path d="M169.83,229.1h12.22s-.49-27.61-1.19-51.35c-5.21-.24-10.36-.55-15.43-.92l4.41,52.26Z" fill="url(#h)" stroke-width="0"/><path d="M186.04,229.1h12.22l4.28-50.73c-5.15-.06-10.25-.18-15.31-.36-.69,23.68-1.18,51.09-1.18,51.09Z" fill="url(#i)" stroke-width="0"/><path d="M205.4,152.25c-4.49.1-9.02.15-13.58.15-1.19,0-2.41,0-3.62-.01-.21,3.81-.41,8.72-.61,14.21,5.18.56,10.46,1.04,15.84,1.46.47-5.26,1.04-10.54,1.97-15.81Z" fill="url(#j)" stroke-width="0"/><path d="M207.66,142.27c3.8-13.24,11.02-26.13,25.99-37.82L367.83,0h-69.96l-84.94,91.14c-17.09,17.09-22.14,30.65-24.11,52.7,5.5-.32,11.01-.71,16.7-1.25.73-.11,1.43-.22,2.15-.33Z" fill="url(#k)" stroke-width="0"/></svg>